<svg width="52" height="32" viewBox="0 0 52 32" fill="none" xmlns="http://www.w3.org/2000/svg">
<path d="M30.7906 0.0232086C30.6485 0.0232086 30.5063 0.0232085 30.3641 0.0333647C24.7203 0.308599 19.1969 6.21954 14.2969 6.88985C7.87767 7.76329 4.07908 7.44844 3.5147 12.8313C3.34408 14.4055 2.58829 15.1266 2.07205 16.7313C1.33595 17.3 0.231264 17.7469 0.18642 18.6305C0.13392 19.6664 0.0234513 20.743 0.84267 21.6773L2.44173 20.682C2.35314 18.3156 3.02908 17.3711 4.0408 15.2484C4.4072 18.3156 3.57267 21.0375 2.69548 24.257C3.0772 26.8773 3.69736 29.5586 4.9497 31.9758H8.88501C6.58814 29.6297 5.19798 26.8977 6.46673 24.257C7.42486 24.1352 8.79642 23.9016 9.62658 23.1805C11.1141 26.532 11.5625 28.9695 14.0125 31.9758H18.4422C16.211 29.3555 12.886 28.2992 13.6844 22.7234C17.0094 22.7844 18.3875 23.4141 23.3203 22.1242L23.0141 25.7398C23.7578 28.157 25.6719 29.975 27.2141 31.9758H31.436C29.5656 29.9852 26.5031 28.9086 27.0063 24.9477L27.9578 22.4594C30.3422 25.7703 32.5297 29.1422 36.4781 31.9758H40.4156C37.9875 29.5891 33.4375 27.0297 33.525 22.4594C36.0078 22.9164 36.7844 23.4547 38.0094 23.0688C38.9828 25.4859 40.0984 27.6188 42.0563 28.8172C44.3531 26.4305 44.8453 25.1914 44.9219 22.043L47.3828 23.4852C48.0719 23.9523 49.5594 22.9367 49.4391 22.1953L49.0235 18.9961C49.6469 17.7875 50.4344 16.6195 51.8125 15.6039C52.0969 12.9125 50.7188 10.4141 49.0672 7.875C48.4766 6.96094 45.5453 7.18438 43.6094 6.65625C38.5125 3.94454 35.1985 0.0577399 30.7906 0.0232086ZM38.8188 3.63985L39.6391 5.1125C40.8531 7.2961 41.4875 8.32188 44.736 9.70313C45.3703 10.0484 45.95 10.5766 46.1688 11.125C46.3875 11.7039 46.3656 12.293 46.2125 12.8313C45.9063 13.9586 44.4844 15.1266 43.4453 14.832C39.8578 13.7148 37.8016 12.293 37.0031 10.4852C36.2047 8.67735 36.8281 6.77813 37.9109 5.06172L38.8188 3.63985ZM38.8406 7.50938C38.5453 8.35235 38.5235 9.10391 38.8188 9.78438C39.2891 10.8406 40.7 12.0086 43.8719 13.0344C44.3203 12.425 44.6594 11.6938 43.9156 11.3688C41.8484 10.3531 39.9672 9.0836 38.8406 7.50938ZM47.9844 14.2938C47.6563 15.2078 47.9188 15.9797 48.5203 16.6906C47.6781 16.5383 46.5406 16.7313 46.311 15.8883C46.1469 15.2891 47.0875 14.7914 47.9844 14.2938Z" fill="#009CB7"/>
</svg>
